<?xml version="1.0" encoding="UTF-8"?>
<svg version="1.1" xmlns="http://www.w3.org/2000/svg" width="492" height="351">
<path d="M0 0 C162.36 0 324.72 0 492 0 C492 115.83 492 231.66 492 351 C329.64 351 167.28 351 0 351 C0 235.17 0 119.34 0 0 Z " fill="#FBFCFB" transform="translate(0,0)"/>
<path d="M0 0 C1.18851563 0.28875 2.37703125 0.5775 3.6015625 0.875 C30.64311091 8.24398643 59.32542782 28.91643743 74 53 C74 53.66 74 54.32 74 55 C75.41875765 54.23302204 76.83491452 53.46123222 78.25 52.6875 C79.03890625 52.25824219 79.8278125 51.82898438 80.640625 51.38671875 C83.02861519 50.05580813 83.02861519 50.05580813 85.109375 48.33203125 C87 47 87 47 90 47 C89.51766892 54.88361841 88.56355523 62.67669007 87.5 70.5 C87.36940186 71.46760254 87.23880371 72.43520508 87.10424805 73.43212891 C86.56233634 77.34940577 86.0231491 81.17526668 85 85 C78.14243975 84.46501303 72.2911567 82.54079989 65.875 80.125 C64.91207031 79.77308594 63.94914063 79.42117187 62.95703125 79.05859375 C58.15157294 77.28050808 53.51859648 75.4190466 49 73 C49 72.01 49 71.02 49 70 C51.1171875 68.39453125 51.1171875 68.39453125 53.875 66.8125 C54.77992188 66.28269531 55.68484375 65.75289063 56.6171875 65.20703125 C59 64 59 64 61 64 C46.5062485 38.75281996 20.54549781 22.83293588 -6.890625 15.1953125 C-37.45632024 7.13149843 -69.32342846 12.33710283 -96.578125 27.91015625 C-123.47174027 43.97539388 -143.42563593 70.15731654 -151.49780273 100.39550781 C-153.19938426 107.26612725 -153.90327228 113.92659346 -154 121 C-154.03649658 122.43255127 -154.03649658 122.43255127 -154.07373047 123.89404297 C-154.39211109 136.96346867 -154.51627627 149.32289872 -151 162 C-150.76796875 163.01835937 -150.5359375 164.03671875 -150.296875 165.0859375 C-146.21487815 180.97370956 -136.5044633 195.60438947 -126 208 C-125.28457031 208.87785156 -124.56914063 209.75570312 -123.83203125 210.66015625 C-107.69482651 229.67795492 -80.37362968 245.14982514 -55.47558594 247.82128906 C-19.6537872 250.4072414 11.82757388 244.08628995 40 221 C40.86238281 220.30261719 41.72476563 219.60523438 42.61328125 218.88671875 C49.61150427 212.93333152 56.84174077 205.31651847 61 197 C64.70503641 197.60334309 66.85968148 199.22474237 69.75 201.5625 C70.54921875 202.20316406 71.3484375 202.84382812 72.171875 203.50390625 C72.77515625 203.99761719 73.3784375 204.49132812 74 205 C73.0916 211.10331248 67.86467014 215.49221989 64 220 C63.30519531 220.84304688 62.61039063 221.68609375 61.89453125 222.5546875 C41.74841911 246.21597493 9.48302695 260.99130637 -21.04296875 264.72265625 C-56.78155992 267.22753283 -92.79031513 259.16822197 -120.6875 235.6875 C-122.82473835 233.82639064 -124.91922592 231.92388254 -127 230 C-127.51159668 229.53223145 -128.02319336 229.06446289 -128.55029297 228.58251953 C-153.66727701 205.37738965 -168.8861614 172.86621567 -171.22265625 138.7487793 C-171.3377689 135.47526324 -171.37979682 132.2130118 -171.375 128.9375 C-171.37338867 127.77081787 -171.37177734 126.60413574 -171.37011719 125.40209961 C-171.22367389 114.91632865 -169.74349666 105.10403817 -167 95 C-166.69964844 93.88882813 -166.39929688 92.77765625 -166.08984375 91.6328125 C-156.62812863 60.749119 -135.20344391 33.21178825 -108 16 C-106.92878906 15.30648437 -105.85757813 14.61296875 -104.75390625 13.8984375 C-73.46025091 -5.19474679 -35.20871425 -9.20919196 0 0 Z " fill="#80B73E" transform="translate(189,49)"/>
<path d="M0 0 C6.40448303 -0.1737029 12.80758029 -0.30038007 19.21386719 -0.38452148 C21.3905426 -0.4196135 23.5670543 -0.46730105 25.74316406 -0.52807617 C28.88127094 -0.61349125 32.01718839 -0.65280114 35.15625 -0.68359375 C36.60360535 -0.73778725 36.60360535 -0.73778725 38.0802002 -0.79307556 C44.57514549 -0.79680674 47.84896825 0.69530086 52.53356934 5.19981384 C54.87708579 8.07670805 55.12565944 10.63938014 55.13422108 14.21266747 C55.13867892 15.07595582 55.14313676 15.93924418 55.14772969 16.82869279 C55.14754533 17.7776079 55.14736097 18.72652301 55.14717102 19.70419312 C55.15084771 20.71186599 55.1545244 21.71953887 55.1583125 22.75774729 C55.16936708 26.15018948 55.17319616 29.54260107 55.17700195 32.93505859 C55.18326513 35.3608561 55.1899118 37.78665264 55.19691467 40.21244812 C55.21615241 47.50234462 55.22674324 54.79223861 55.23564246 62.08215278 C55.24002568 65.51440105 55.24539231 68.94664776 55.25063133 72.37889481 C55.26764106 83.7865053 55.28213638 95.19411484 55.28938007 106.60173607 C55.29128998 109.56163916 55.29321032 112.52154225 55.29516602 115.48144531 C55.29564976 116.2171191 55.2961335 116.9527929 55.2966319 117.71075983 C55.30493661 129.63474731 55.33028207 141.55863461 55.36274669 153.48257832 C55.3957986 165.72186378 55.41382704 177.96109828 55.41702431 190.20042861 C55.4191909 197.07356647 55.42796134 203.94655815 55.45348549 210.81965256 C55.47743092 217.28254807 55.48102995 223.74525163 55.47072411 230.2081852 C55.47022683 232.5830059 55.47660344 234.95783925 55.49028015 237.33262062 C55.50788128 240.56934653 55.50095057 243.80511431 55.48774719 247.0418396 C55.49871644 247.98629326 55.50968568 248.93074692 55.52098733 249.9038204 C55.48121123 253.92970708 55.34955278 256.38030383 53.3445158 259.93488503 C48.17520992 264.48815397 43.60699352 265.44225783 36.87120056 265.38768005 C36.06922558 265.39306559 35.2672506 265.39845113 34.44097334 265.40399987 C31.76249327 265.41827008 29.08450805 265.41117817 26.40600586 265.40405273 C24.48221948 265.4097567 22.55843648 265.41672106 20.63465881 265.42485046 C15.41578775 265.44279151 10.19708473 265.441612 4.97819209 265.43590808 C0.62156956 265.43281841 -3.73502058 265.43890603 -8.09163851 265.44494683 C-18.36719069 265.45899279 -28.64265973 265.4574294 -38.91821289 265.44604492 C-49.52245296 265.434556 -60.12644036 265.44865228 -70.73064715 265.4754414 C-79.83482301 265.49758069 -88.93891945 265.50423999 -98.04312032 265.49836498 C-103.48092192 265.49499089 -108.91856143 265.49744088 -114.35634041 265.51461601 C-119.4675367 265.53005542 -124.57835765 265.52616299 -129.68953896 265.50731087 C-131.56607236 265.50361704 -133.44263339 265.50675648 -135.31914139 265.51719666 C-137.87925788 265.53035381 -140.43812201 265.51890676 -142.9981842 265.50120544 C-143.74215314 265.51081045 -144.48612208 265.52041546 -145.25263554 265.53031152 C-150.12816248 265.46086334 -152.54857516 264.41822644 -156 261 C-161.07962232 255.42004293 -159.96327908 247.53379888 -159.75 240.39453125 C-159.30674544 235.32913585 -158.0664771 232.65447511 -154.3125 229.0625 C-152.55175324 227.69524403 -150.78177272 226.33974028 -149 225 C-147.29473365 222.93657088 -147.29473365 222.93657088 -146 220.875 C-145.34 219.92625 -144.68 218.9775 -144 218 C-143.34 218 -142.68 218 -142 218 C-141.97494385 218.84296631 -141.9498877 219.68593262 -141.92407227 220.55444336 C-141.82911845 223.67241674 -141.72987552 226.79021503 -141.62768555 229.90795898 C-141.58428777 231.25914147 -141.5426163 232.61038053 -141.50268555 233.96166992 C-141.44510048 235.90036701 -141.38085702 237.83886276 -141.31640625 239.77734375 C-141.27974854 240.94515381 -141.24309082 242.11296387 -141.20532227 243.31616211 C-141.29923812 245.91779795 -141.29923812 245.91779795 -140 247 C-137.73442613 247.09707611 -135.46575698 247.12186621 -133.19810486 247.12025452 C-132.48028839 247.12111053 -131.76247192 247.12196655 -131.02290344 247.12284851 C-128.59198584 247.12451354 -126.161136 247.11896421 -123.73022461 247.11352539 C-121.96793654 247.1132193 -120.20564834 247.11335214 -118.44336033 247.11389065 C-113.70711565 247.1141172 -108.97089603 247.10830477 -104.23465729 247.10128021 C-99.79677752 247.09560192 -95.35890397 247.095318 -90.92102051 247.09460449 C-77.92651033 247.08934891 -64.93200485 247.07538787 -51.9375 247.0625 C-22.918125 247.041875 6.10125 247.02125 36 247 C36 171.76 36 96.52 36 19 C24.12 18.67 12.24 18.34 0 18 C0 12.06 0 6.12 0 0 Z " fill="#21315C" transform="translate(407,49)"/>
<path d="M0 0 C1.69962891 0.36544922 1.69962891 0.36544922 3.43359375 0.73828125 C24.84252543 5.96057557 46.61186513 20.60453224 60 38 C58.48328036 42.55015893 54.83108947 44.50057264 51 47 C47.90877125 45.63698986 46.84969094 44.81409143 44.625 42.0625 C30.32193112 24.81256768 7.09946248 13.73080454 -14.94189453 11.62304688 C-30.18073421 10.63916328 -45.86840823 10.63119546 -60 17 C-60.68964844 17.30534668 -61.37929687 17.61069336 -62.08984375 17.92529297 C-74.62616408 23.59554093 -84.96514046 30.55246502 -95 40 C-95.60585937 40.52980469 -96.21171875 41.05960938 -96.8359375 41.60546875 C-113.1887288 56.53794719 -121.9542522 79.97598522 -123.14257812 101.59375 C-123.73398813 117.64630718 -122.45555118 132.50997529 -115 147 C-114.27876953 148.57974609 -114.27876953 148.57974609 -113.54296875 150.19140625 C-104.74271613 168.96665247 -91.45635855 182.09042205 -74 193 C-73.15695313 193.54011719 -72.31390625 194.08023438 -71.4453125 194.63671875 C-66.85747974 197.19447216 -61.87306016 198.72743761 -56.8984375 200.36816406 C-55.12233919 200.9592832 -53.35749431 201.58391831 -51.59375 202.2109375 C-35.79121921 207.22930876 -17.83841181 206.60519039 -2 202 C-1.175 201.80664062 -0.35 201.61328125 0.5 201.4140625 C13.76590166 198.05394925 25.51301664 190.54375979 36 182 C36.86753906 181.32324219 37.73507813 180.64648438 38.62890625 179.94921875 C56.13403476 165.55867653 67.65983367 140.26776824 70 118 C70.51259207 107.27083653 70.52419118 96.48399861 68 86 C67.5978125 84.29263672 67.5978125 84.29263672 67.1875 82.55078125 C65.3641365 75.52323443 62.97045777 69.45644388 59.26953125 63.20703125 C58 61 58 61 57 58 C58.48150758 58.40826514 59.96006525 58.82723328 61.4375 59.25 C62.26121094 59.48203125 63.08492187 59.7140625 63.93359375 59.953125 C64.94550781 60.29859375 65.95742187 60.6440625 67 61 C67.73105957 61.19432617 68.46211914 61.38865234 69.21533203 61.58886719 C73.02885795 62.84727603 75.36070467 63.85190586 77.36108398 67.44433594 C78.43168479 70.52234547 79.25089386 73.57865726 80 76.75 C80.28488281 77.80960937 80.56976563 78.86921875 80.86328125 79.9609375 C88.0746726 107.50776892 84.25343299 138.84294298 70.0625 163.6875 C66.48032723 169.52230833 62.48171225 174.83274859 58 180 C57.33613281 180.80824219 56.67226562 181.61648437 55.98828125 182.44921875 C45.74680656 194.50803461 32.99559896 202.88772861 19 210 C18.02933594 210.50402344 17.05867187 211.00804687 16.05859375 211.52734375 C-4.36603678 221.08595462 -33.62154463 223.22340479 -54.94140625 216.125 C-56.45541016 215.568125 -56.45541016 215.568125 -58 215 C-58.99902344 214.71125 -59.99804688 214.4225 -61.02734375 214.125 C-89.25376363 205.81656629 -111.65124797 184.17258092 -125.63525391 158.91088867 C-129.04531453 152.40764374 -131.25190827 145.77019772 -133.0625 138.671875 C-133.91233956 135.09151325 -133.91233956 135.09151325 -135.0625 132.078125 C-142.27830757 108.38622347 -136.16797222 77.3570171 -125 56 C-119.28329716 45.89692752 -112.17899592 37.19054818 -104 29 C-103.14921875 28.13761719 -102.2984375 27.27523437 -101.421875 26.38671875 C-87.91121005 13.38169245 -71.07060758 4.74709481 -53 0 C-52.31550781 -0.19335938 -51.63101563 -0.38671875 -50.92578125 -0.5859375 C-34.43098392 -5.05800436 -16.44758486 -3.9605646 0 0 Z " fill="#253562" transform="translate(179,71)"/>
<path d="M0 0 C3.53198294 2.145938 5.9541044 4.32273869 8.25 7.8125 C9.24 9.2975 9.24 9.2975 10.25 10.8125 C10.375 14 10.375 14 10.25 16.8125 C10.89026123 16.79155273 11.53052246 16.77060547 12.19018555 16.74902344 C15.10579575 16.66560716 18.02115452 16.61376031 20.9375 16.5625 C22.44860352 16.51222656 22.44860352 16.51222656 23.99023438 16.4609375 C28.18841054 16.40551603 31.48332324 16.51377022 35.41796875 18.046875 C38.53623232 22.75418973 37.96830086 27.80774951 37.875 33.3125 C37.89433594 34.45332031 37.91367187 35.59414063 37.93359375 36.76953125 C37.92714844 37.86652344 37.92070312 38.96351562 37.9140625 40.09375 C37.90842285 41.09470703 37.9027832 42.09566406 37.89697266 43.12695312 C36.98791774 46.90038861 35.51251789 47.76247719 32.25 49.8125 C29.41015372 50.19969942 26.96152417 50.36060717 24.12670898 50.33007812 C23.32285767 50.3370874 22.51900635 50.34409668 21.6907959 50.35131836 C19.04220716 50.36887782 16.39469274 50.35728445 13.74609375 50.34375 C11.90193985 50.34644525 10.05778734 50.35032794 8.21363831 50.35534668 C4.35265545 50.36123871 0.49204323 50.35268735 -3.36889648 50.33398438 C-8.31788612 50.31117891 -13.26600883 50.32432973 -18.21496677 50.34827423 C-22.02140337 50.36272657 -25.82763429 50.35812911 -29.63407707 50.34776306 C-31.45893392 50.34509504 -33.28380945 50.34836819 -35.10864449 50.35768127 C-37.65830102 50.36783951 -40.20655173 50.35235781 -42.75610352 50.33007812 C-43.50997849 50.33817505 -44.26385345 50.34627197 -45.04057312 50.35461426 C-48.51037652 50.29843529 -50.41300618 50.06716433 -53.2172699 47.94799805 C-55.19762136 45.18884517 -55.26602006 43.47261996 -55.28125 40.09375 C-55.28640625 38.99675781 -55.2915625 37.89976563 -55.296875 36.76953125 C-55.28140625 35.62871094 -55.2659375 34.48789062 -55.25 33.3125 C-55.26546875 32.17167969 -55.2809375 31.03085937 -55.296875 29.85546875 C-55.29171875 28.75847656 -55.2865625 27.66148438 -55.28125 26.53125 C-55.27673828 25.53029297 -55.27222656 24.52933594 -55.26757812 23.49804688 C-54.60113653 20.0400952 -53.58827594 18.8645699 -50.75 16.8125 C-48.18457031 16.35839844 -48.18457031 16.35839844 -45.328125 16.421875 C-43.79091797 16.44121094 -43.79091797 16.44121094 -42.22265625 16.4609375 C-40.62744141 16.51121094 -40.62744141 16.51121094 -39 16.5625 C-37.38158203 16.58957031 -37.38158203 16.58957031 -35.73046875 16.6171875 C-33.06941212 16.66428585 -30.41015746 16.730044 -27.75 16.8125 C-27.80027344 15.42224609 -27.80027344 15.42224609 -27.8515625 14.00390625 C-27.70229269 9.31338948 -25.60429024 6.65662975 -22.32421875 3.39453125 C-15.44602313 -2.66610106 -8.21577932 -4.29706879 0 0 Z " fill="#243661" transform="translate(363.75,21.1875)"/>
<path d="M0 0 C0.71353638 0.00202423 1.42707275 0.00404846 2.16223145 0.00613403 C2.89091431 0.00517731 3.61959717 0.00422058 4.37036133 0.00323486 C5.91377855 0.00255318 7.45719861 0.00440666 9.00061035 0.00857544 C11.37095544 0.01392391 13.74111104 0.00863011 16.1114502 0.00222778 C17.60754437 0.00288857 19.10363842 0.00416973 20.59973145 0.00613403 C21.31326782 0.0041098 22.0268042 0.00208557 22.76196289 0 C27.76602953 0.02399462 27.76602953 0.02399462 28.88098145 1.13894653 C28.98185356 3.64818807 29.02070177 6.12931037 29.01379395 8.63894653 C29.01475067 9.38982544 29.0157074 10.14070435 29.01669312 10.91433716 C29.01737483 12.5048328 29.01552116 14.09533121 29.01135254 15.68582153 C29.00600411 18.12859308 29.01129778 20.57118075 29.0177002 23.01394653 C29.01703941 24.55561361 29.01575825 26.09728057 29.01379395 27.63894653 C29.01581818 28.37435669 29.01784241 29.10976685 29.01992798 29.86746216 C28.99593305 35.02399493 28.99593305 35.02399493 27.88098145 36.13894653 C25.44437699 36.23977417 23.03673444 36.27867257 20.59973145 36.27175903 C19.87104858 36.27271576 19.14236572 36.27367249 18.39160156 36.2746582 C16.84818435 36.27533989 15.30476428 36.27348641 13.76135254 36.26931763 C11.39100745 36.26396916 9.02085185 36.26926295 6.6505127 36.27566528 C5.15441852 36.2750045 3.65832447 36.27372333 2.16223145 36.27175903 C1.09192688 36.27479538 1.09192688 36.27479538 0 36.27789307 C-5.00406664 36.25389845 -5.00406664 36.25389845 -6.11901855 35.13894653 C-6.21989067 32.629705 -6.25873888 30.14858269 -6.25183105 27.63894653 C-6.25278778 26.88806763 -6.25374451 26.13718872 -6.25473022 25.36355591 C-6.25541194 23.77306027 -6.25355827 22.18256186 -6.24938965 20.59207153 C-6.24404122 18.14929999 -6.24933489 15.70671232 -6.2557373 13.26394653 C-6.25507652 11.72227946 -6.25379536 10.1806125 -6.25183105 8.63894653 C-6.25385529 7.90353638 -6.25587952 7.16812622 -6.25796509 6.41043091 C-6.22990923 0.38120035 -6.04595781 0.02899051 0 0 Z " fill="#92C457" transform="translate(297.1190185546875,160.86105346679688)"/>
<path d="M0 0 C1.01394333 0.00424484 2.02788666 0.00848969 3.07255554 0.01286316 C6.30254974 0.02962016 9.53191397 0.06726753 12.76171875 0.10546875 C14.9550691 0.12051941 17.14842925 0.13420715 19.34179688 0.14648438 C24.71117925 0.17951405 30.08009228 0.23127647 35.44921875 0.29296875 C35.44921875 6.23296875 35.44921875 12.17296875 35.44921875 18.29296875 C22.90921875 18.29296875 10.36921875 18.29296875 -2.55078125 18.29296875 C-2.55078125 26.54296875 -2.55078125 34.79296875 -2.55078125 43.29296875 C-5.87854923 39.96520077 -9.05650258 36.67313757 -12.17578125 33.16796875 C-15.02601226 29.86094843 -15.02601226 29.86094843 -18.296875 27.01171875 C-20.47695955 24.02344086 -20.02132478 20.47465413 -19.98828125 16.91796875 C-20.00826172 16.16257812 -20.02824219 15.4071875 -20.04882812 14.62890625 C-20.04551077 10.8338523 -19.82841893 8.75464416 -17.8359375 5.44140625 C-12.07292572 0.02319004 -7.62975795 -0.12050142 0 0 Z " fill="#263762" transform="translate(267.55078125,48.70703125)"/>
<path d="M0 0 C23.76 0 47.52 0 72 0 C72 2.97 72 5.94 72 9 C48.24 9 24.48 9 0 9 C0 6.03 0 3.06 0 0 Z " fill="#304068" transform="translate(346,233)"/>
<path d="M0 0 C23.76 0 47.52 0 72 0 C72 2.97 72 5.94 72 9 C48.24 9 24.48 9 0 9 C0 6.03 0 3.06 0 0 Z " fill="#303F67" transform="translate(346,175)"/>
<path d="M0 0 C2.84097683 1.37744331 4.1624022 3.52471602 6.0625 6 C5.48133423 6.61875 5.48133423 6.61875 4.88842773 7.25 C-3.48898571 16.1090342 -3.48898571 16.1090342 -11.625 25.1875 C-12.1303125 25.76886719 -12.635625 26.35023437 -13.15625 26.94921875 C-14.18021876 28.12813016 -15.2030551 29.30803181 -16.22265625 30.49072266 C-17.67889725 32.17065736 -19.15068509 33.83591938 -20.625 35.5 C-21.0893042 36.04164795 -21.5536084 36.5832959 -22.03198242 37.14135742 C-23.38671875 38.65625 -23.38671875 38.65625 -25.9375 41 C-31.02914733 41 -31.85978781 39.61982692 -35.31445312 36.21875 C-35.95318359 35.5690625 -36.59191406 34.919375 -37.25 34.25 C-37.90806641 33.61578125 -38.56613281 32.9815625 -39.24414062 32.328125 C-39.86095703 31.709375 -40.47777344 31.090625 -41.11328125 30.453125 C-41.67958252 29.88754883 -42.24588379 29.32197266 -42.8293457 28.73925781 C-43.9375 27 -43.9375 27 -43.73510742 24.92480469 C-42.64710454 22.29921094 -41.08788198 20.82456653 -38.9375 19 C-38.2775 19 -37.6175 19 -36.9375 19 C-35.2109375 20.75 -35.2109375 20.75 -33.3125 23 C-32.68085938 23.7425 -32.04921875 24.485 -31.3984375 25.25 C-30.67527344 26.11625 -30.67527344 26.11625 -29.9375 27 C-25.36962686 26.64194819 -23.07985846 23.279669 -20.25 20.0625 C-19.72543213 19.48000488 -19.20086426 18.89750977 -18.66040039 18.29736328 C-17.07850431 16.53820441 -15.50769118 14.76960446 -13.9375 13 C-13.04527931 12.00560464 -12.1521232 11.01204738 -11.2578125 10.01953125 C-9.76042199 8.35767326 -8.26641685 6.69275222 -6.77734375 5.0234375 C-2.20970077 0 -2.20970077 0 0 0 Z " fill="#84BC42" transform="translate(334.9375,98)"/>
<path d="M0 0 C11.22 0 22.44 0 34 0 C34 11.55 34 23.1 34 35 C22.78 35 11.56 35 0 35 C0 23.45 0 11.9 0 0 Z M5 5 C5 13.25 5 21.5 5 30 C12.92 30 20.84 30 29 30 C29 21.75 29 13.5 29 5 C21.08 5 13.16 5 5 5 Z " fill="#8ABF4B" transform="translate(292,220)"/>
<path d="M0 0 C7.92 0 15.84 0 24 0 C24 7.92 24 15.84 24 24 C16.08 24 8.16 24 0 24 C0 16.08 0 8.16 0 0 Z " fill="#FCFDFB" transform="translate(297,167)"/>
<path d="M0 0 C23.76 0 47.52 0 72 0 C72 2.64 72 5.28 72 8 C48.24 8 24.48 8 0 8 C0 5.36 0 2.72 0 0 Z " fill="#22335F" transform="translate(346,118)"/>
<path d="M0 0 C0.66 0 1.32 0 2 0 C3.67590529 3.35181059 3.15409024 7.13357829 3.15821838 10.82034302 C3.16315636 11.7449347 3.16809434 12.66952638 3.17318195 13.622136 C3.18861444 16.73913695 3.19693309 19.85611723 3.20532227 22.97314453 C3.21489627 25.20001408 3.22490607 27.42688179 3.23532104 29.65374756 C3.2624279 35.71540758 3.2834061 41.77707543 3.30332303 47.83876276 C3.32514701 54.16757807 3.35255321 60.49636907 3.37937927 66.82516479 C3.42367034 77.4529316 3.46449736 88.08070607 3.50268555 98.70849609 C3.54203352 109.65642266 3.58345806 120.60433811 3.62768555 131.55224609 C3.63040982 132.22678165 3.63313409 132.9013172 3.63594092 133.59629323 C3.64962028 136.9801522 3.66334058 140.36401101 3.67708123 143.74786973 C3.7910675 171.83189001 3.89779855 199.91593455 4 228 C2.02 228.99 2.02 228.99 0 230 C0 154.1 0 78.2 0 0 Z " fill="#596483" transform="translate(443,67)"/>
<path d="M0 0 C2.5 0.125 2.5 0.125 3.5 1.125 C3.59346915 2.78238443 3.61744977 4.44374644 3.61352539 6.10375977 C3.61344986 7.16478409 3.61337433 8.22580841 3.61329651 9.31898499 C3.60813522 10.473134 3.60297394 11.62728302 3.59765625 12.81640625 C3.5962413 13.99138168 3.59482635 15.16635712 3.59336853 16.37693787 C3.58774992 20.14715064 3.57519426 23.91730504 3.5625 27.6875 C3.5574874 30.23632727 3.55292408 32.78515547 3.54882812 35.33398438 C3.53777444 41.59767633 3.52101821 47.86133399 3.5 54.125 C1.19 54.125 -1.12 54.125 -3.5 54.125 C-3.52526648 46.59530348 -3.54283141 39.0656178 -3.55493164 31.53588867 C-3.5599737 28.97208243 -3.56680714 26.40827909 -3.57543945 23.84448242 C-3.58751064 20.16844979 -3.59322942 16.49245502 -3.59765625 12.81640625 C-3.60281754 11.66225723 -3.60797882 10.50810822 -3.61329651 9.31898499 C-3.61337204 8.25796066 -3.61344757 7.19693634 -3.61352539 6.10375977 C-3.615746 5.16444107 -3.61796661 4.22512238 -3.62025452 3.25733948 C-3.4449159 0.14825501 -3.12671985 0.15633599 0 0 Z " fill="#202E5C" transform="translate(152.5,112.875)"/>
<path d="M0 0 C5.51756476 -0.0493521 11.03500171 -0.08569662 16.55273438 -0.10986328 C18.43068682 -0.11993534 20.30862353 -0.13359362 22.18652344 -0.15087891 C24.8822009 -0.17507453 27.57767146 -0.18647083 30.2734375 -0.1953125 C31.11619232 -0.20563507 31.95894714 -0.21595764 32.82723999 -0.22659302 C34.88621247 -0.22699144 36.94467935 -0.12257588 39 0 C39.66 0.66 40.32 1.32 41 2 C40.44444444 6.55555556 40.44444444 6.55555556 39 8 C36.1156618 8.08865208 33.25537842 8.11521296 30.37109375 8.09765625 C29.07474754 8.09553383 29.07474754 8.09553383 27.75221252 8.09336853 C24.98060708 8.08775239 22.2090812 8.07519719 19.4375 8.0625 C17.5631522 8.05748708 15.68880315 8.05292381 13.81445312 8.04882812 C9.20960456 8.03777772 4.60481579 8.0205023 0 8 C0 5.36 0 2.72 0 0 Z " fill="#2A3964" transform="translate(165,176)"/>
<path d="M0 0 C3.32961021 0.55493503 5.30091917 1.49496853 8 3.5 C9.56935594 6.63871188 9.35201103 9.03855822 9 12.5 C7.00100675 15.43602134 5.55479057 17.12130844 2.02734375 17.98046875 C-1.67633097 18.23661074 -3.63953096 17.79738696 -6.5 15.4375 C-8.39475662 11.72693494 -8.66154724 9.61629392 -8 5.5 C-5.54597925 2.1076772 -4.16402963 0.69400494 0 0 Z " fill="#333F6D" transform="translate(152,170.5)"/>
<path d="M0 0 C2.8125 1.5625 2.8125 1.5625 5 4 C5.63734462 7.96569988 5.61999672 10.03280512 3.4375 13.4375 C0.03280512 15.61999672 -2.03430012 15.63734462 -6 15 C-8.5 12.9375 -8.5 12.9375 -10 10 C-10 6.15050705 -9.86589381 3.95866815 -7.25 1.0625 C-4.48332025 -0.24398766 -3.02709269 -0.5168207 0 0 Z " fill="#F2F3F6" transform="translate(357,29)"/>
<path d="M0 0 C4.29 0 8.58 0 13 0 C13 2.64 13 5.28 13 8 C8.71 8 4.42 8 0 8 C0 5.36 0 2.72 0 0 Z " fill="#384872" transform="translate(61,175)"/>
<path d="M0 0 C2.64 0 5.28 0 8 0 C8 4.29 8 8.58 8 13 C5.36 13 2.72 13 0 13 C0 8.71 0 4.42 0 0 Z " fill="#303D67" transform="translate(149,87)"/>
<path d="M0 0 C2.97 0.495 2.97 0.495 6 1 C6.65234375 2.734375 6.65234375 2.734375 7 5 C6.00390625 7.140625 6.00390625 7.140625 4.5625 9.25 C4.08941406 9.95640625 3.61632812 10.6628125 3.12890625 11.390625 C2.75636719 11.92171875 2.38382813 12.4528125 2 13 C-2.75 12.125 -2.75 12.125 -5 11 C-3.77472971 6.94718288 -2.30119506 3.55639236 0 0 Z " fill="#3A486E" transform="translate(193,99)"/>
<path d="M0 0 C4 6.05714286 4 6.05714286 4 11 C2.02 11.66 0.04 12.32 -2 13 C-3.03325986 11.57140593 -4.05127634 10.13177617 -5.0625 8.6875 C-5.63097656 7.88699219 -6.19945312 7.08648437 -6.78515625 6.26171875 C-7.18605469 5.51535156 -7.58695313 4.76898438 -8 4 C-7 1 -7 1 -5.125 -0.25 C-3 -1 -3 -1 0 0 Z " fill="#293762" transform="translate(196,247)"/>
<path d="M0 0 C3.7910119 1.44950455 7.3874638 3.15172566 11 5 C10.42415568 7.38564077 9.77772405 9.66682784 9 12 C4.24518354 11.42365861 1.02951788 9.44931479 -3 7 C-1.125 1.125 -1.125 1.125 0 0 Z " fill="#34426C" transform="translate(222,215)"/>
<path d="M0 0 C1.859375 0.83984375 1.859375 0.83984375 3.859375 3.83984375 C3.859375 4.82984375 3.859375 5.81984375 3.859375 6.83984375 C2.42643002 7.68098546 0.98783095 8.51250062 -0.453125 9.33984375 C-1.25363281 9.80390625 -2.05414063 10.26796875 -2.87890625 10.74609375 C-5.140625 11.83984375 -5.140625 11.83984375 -8.140625 11.83984375 C-8.800625 9.52984375 -9.460625 7.21984375 -10.140625 4.83984375 C-8.90118224 3.97042881 -7.64855441 3.11978918 -6.390625 2.27734375 C-5.69453125 1.80167969 -4.9984375 1.32601562 -4.28125 0.8359375 C-2.140625 -0.16015625 -2.140625 -0.16015625 0 0 Z " fill="#263563" transform="translate(229.140625,131.16015625)"/>
<path d="M0 0 C3.96 0 7.92 0 12 0 C12 2.64 12 5.28 12 8 C8.04 8 4.08 8 0 8 C0 5.36 0 2.72 0 0 Z " fill="#303F67" transform="translate(232,175)"/>
<path d="M0 0 C4.75481646 0.57634139 7.97048212 2.55068521 12 5 C11.42415568 7.38564077 10.77772405 9.66682784 10 12 C6.78147169 11.36934243 4.49198931 10.21979305 1.75 8.4375 C1.04359375 7.98246094 0.3371875 7.52742187 -0.390625 7.05859375 C-1.18726562 6.53458984 -1.18726562 6.53458984 -2 6 C-1.34 4.02 -0.68 2.04 0 0 Z " fill="#283866" transform="translate(74,131)"/>
<path d="M0 0 C12.54 0 25.08 0 38 0 C38 0.33 38 0.66 38 1 C26.12 1 14.24 1 2 1 C2 9.58 2 18.16 2 27 C0.68 26.67 -0.64 26.34 -2 26 C-2 25.01 -2 24.02 -2 23 C-1.67 23.33 -1.34 23.66 -1 24 C-0.67 16.08 -0.34 8.16 0 0 Z " fill="#D1D5DC" transform="translate(265,67)"/>
<path d="M0 0 C1.25984998 2.07504702 1.98608195 3.55462237 2.0625 6 C0.35654957 9.21120081 -2.69737987 10.64433933 -6 12 C-6.99 12 -7.98 12 -9 12 C-10.4606285 9.35261084 -11 8.10551666 -11 5 C-9.54462432 4.16151196 -8.08559627 3.32936066 -6.625 2.5 C-5.81289062 2.0359375 -5.00078125 1.571875 -4.1640625 1.09375 C-2 0 -2 0 0 0 Z " fill="#36446C" transform="translate(83,215)"/>
<path d="M0 0 C2.4375 0.75 2.4375 0.75 5 2 C6.06297634 4.46610511 6.14519209 5.60017454 5.22265625 8.140625 C4.83980469 8.83671875 4.45695312 9.5328125 4.0625 10.25 C3.68222656 10.95640625 3.30195312 11.6628125 2.91015625 12.390625 C2.60980469 12.92171875 2.30945313 13.4528125 2 14 C-2.75 13.25 -2.75 13.25 -5 11 C-4.74997427 6.49953685 -2.58245696 3.58211773 0 0 Z " fill="#243663" transform="translate(110,246)"/>
<path d="M0 0 C0.83848804 1.45537568 1.67063934 2.91440373 2.5 4.375 C2.9640625 5.18710938 3.428125 5.99921875 3.90625 6.8359375 C5 9 5 9 5 11 C2.35261084 12.4606285 1.10551666 13 -2 13 C-3.38671875 11.35546875 -3.38671875 11.35546875 -4.6875 9.1875 C-5.12449219 8.47980469 -5.56148438 7.77210937 -6.01171875 7.04296875 C-7 5 -7 5 -7 2 C-4.35261084 0.5393715 -3.10551666 0 0 0 Z " fill="#344269" transform="translate(112,99)"/>
<path d="M0 0 C2.31 0 4.62 0 7 0 C7 4.29 7 8.58 7 13 C4.69 13 2.38 13 0 13 C0 8.71 0 4.42 0 0 Z " fill="#2C3D67" transform="translate(149,258)"/>
<path d="M0 0 C0.33 0 0.66 0 1 0 C1.02505615 0.7113208 1.0501123 1.4226416 1.07592773 2.15551758 C1.19188439 5.37469517 1.31461245 8.59357985 1.4375 11.8125 C1.47681641 12.93205078 1.51613281 14.05160156 1.55664062 15.20507812 C1.59853516 16.27822266 1.64042969 17.35136719 1.68359375 18.45703125 C1.72025146 19.44678955 1.75690918 20.43654785 1.79467773 21.45629883 C1.90790331 24.1218351 1.90790331 24.1218351 3 27 C3.99 27.33 4.98 27.66 6 28 C3.03 28 0.06 28 -3 28 C-3.13842466 18.4486982 -3.04412257 9.13236771 0 0 Z " fill="#83B941" transform="translate(295,226)"/>
<path d="M0 0 C1.2065625 0.0309375 1.2065625 0.0309375 2.4375 0.0625 C1.46635254 0.95328247 1.46635254 0.95328247 0.47558594 1.86206055 C-2.51697672 6.5613303 -2.16545439 10.80330369 -2.171875 16.26953125 C-2.18841125 17.35006271 -2.20494751 18.43059418 -2.22198486 19.54386902 C-2.27048491 22.98763706 -2.29184107 26.43096341 -2.3125 29.875 C-2.34065788 32.21291287 -2.37058504 34.55080515 -2.40234375 36.88867188 C-2.47624442 42.61320102 -2.52787526 48.33760583 -2.5625 54.0625 C-2.8925 54.0625 -3.2225 54.0625 -3.5625 54.0625 C-3.58776648 46.53280348 -3.60533141 39.0031178 -3.61743164 31.47338867 C-3.6224737 28.90958243 -3.62930714 26.34577909 -3.63793945 23.78198242 C-3.65001064 20.10594979 -3.65572942 16.42995502 -3.66015625 12.75390625 C-3.66531754 11.59975723 -3.67047882 10.44560822 -3.67579651 9.25648499 C-3.67587204 8.19546066 -3.67594757 7.13443634 -3.67602539 6.04125977 C-3.678246 5.10194107 -3.68046661 4.16262238 -3.68275452 3.19483948 C-3.50518556 0.04620689 -3.17521132 0.07744418 0 0 Z " fill="#3D4A73" transform="translate(152.5625,112.9375)"/>
<path d="M0 0 C3.0625 0.125 3.0625 0.125 5.0625 1.125 C5.1875 3.5 5.1875 3.5 5.0625 6.125 C3.0625 8.125 3.0625 8.125 0.5625 8.375 C-1.9375 8.125 -1.9375 8.125 -3.9375 6.125 C-4.125 3.5625 -4.125 3.5625 -3.9375 1.125 C-2.9375 0.125 -2.9375 0.125 0 0 Z " fill="#E2E4EA" transform="translate(151.9375,175.875)"/>
<path d="M0 0 C0.66 0.33 1.32 0.66 2 1 C-4.27 7.27 -10.54 13.54 -17 20 C-17.66 19.67 -18.32 19.34 -19 19 C-6.51480638 5.18223235 -6.51480638 5.18223235 0 0 Z " fill="#E6F0DA" transform="translate(79,85)"/>
<path d="M0 0 C0.66 0 1.32 0 2 0 C2.125 3.375 2.125 3.375 2 7 C0 9 0 9 -2.1640625 9.1953125 C-3.38222656 9.16050781 -3.38222656 9.16050781 -4.625 9.125 C-5.44226563 9.10695312 -6.25953125 9.08890625 -7.1015625 9.0703125 C-7.72804687 9.04710937 -8.35453125 9.02390625 -9 9 C-9.33 8.34 -9.66 7.68 -10 7 C-9.44570312 6.82984375 -8.89140625 6.6596875 -8.3203125 6.484375 C-3.74877023 5.09174014 -3.74877023 5.09174014 -0.5 1.8125 C-0.335 1.214375 -0.17 0.61625 0 0 Z " fill="#213161" transform="translate(158,178)"/>
<path d="M0 0 C0 3 0 3 0 3 Z M5 2 C4.9375 3.75 4.9375 3.75 4 6 C0.7838181 8.44727466 -1.92394904 10 -6 10 C-6 7 -6 7 -4.3125 4.875 C-1.28651548 2.42149903 1.17234848 2 5 2 Z " fill="#253561" transform="translate(80,217)"/>
<path d="M0 0 C2.475 0.99 2.475 0.99 5 2 C3.9375 4.875 3.9375 4.875 2 8 C-1.6875 9.375 -1.6875 9.375 -5 10 C-3.66511872 6.40608886 -2.03977277 3.24509304 0 0 Z " fill="#394871" transform="translate(110,246)"/>
<path d="M0 0 C1.48442565 4.6359755 0.92567504 9.29850621 0.7421875 14.1015625 C0.82726562 15.05804688 0.91234375 16.01453125 1 17 C1.99 17.66 2.98 18.32 4 19 C4 19.99 4 20.98 4 22 C4.99 22.33 5.98 22.66 7 23 C6.67 23.99 6.34 24.98 6 26 C2.87687764 24.09585142 0.85005889 22.17285099 -1 19 C-1.98204531 13.4415132 -2.53779287 5.07558573 0 0 Z " fill="#34416C" transform="translate(249,55)"/>
<path d="M0 0 C1.32 0 2.64 0 4 0 C3.46972205 4.5073626 1.80388725 7.4539073 -1 11 C-1.99 11 -2.98 11 -4 11 C-3.690625 10.278125 -3.38125 9.55625 -3.0625 8.8125 C-2.07446889 6.19712353 -1.53166153 3.73425932 -1 1 C-0.67 0.67 -0.34 0.34 0 0 Z " fill="#24345E" transform="translate(196,101)"/>
<path d="M0 0 C0.33 0 0.66 0 1 0 C1.06058594 0.61488281 1.12117188 1.22976562 1.18359375 1.86328125 C1.26738281 2.67152344 1.35117187 3.47976562 1.4375 4.3125 C1.51871094 5.11300781 1.59992188 5.91351563 1.68359375 6.73828125 C1.95265693 9.16087179 1.95265693 9.16087179 3 12 C3.99 12.33 4.98 12.66 6 13 C3.36 13 0.72 13 -2 13 C-2 10.36 -2 7.72 -2 5 C-1.67 5 -1.34 5 -1 5 C-0.67 3.35 -0.34 1.7 0 0 Z " fill="#7DB537" transform="translate(295,241)"/>
<path d="M0 0 C3 1 3 1 4 3 C4.04022391 5.3329866 4.04320247 7.66706666 4 10 C3.67 10 3.34 10 3 10 C3 8.35 3 6.7 3 5 C2.34 5 1.68 5 1 5 C0.67 5.99 0.34 6.98 0 8 C0 6.68 0 5.36 0 4 C-2.31 3.67 -4.62 3.34 -7 3 C-7 2.67 -7 2.34 -7 2 C-4.69 2 -2.38 2 0 2 C0 1.34 0 0.68 0 0 Z " fill="#495580" transform="translate(157,173)"/>
<path d="M0 0 C0.2475 0.61875 0.495 1.2375 0.75 1.875 C2.20628639 4.35068687 3.37812506 4.95125002 6 6 C6 7.32 6 8.64 6 10 C3.0280615 8.87548273 0.66559313 7.77706209 -2 6 C-1.34 4.02 -0.68 2.04 0 0 Z " fill="#394871" transform="translate(74,131)"/>
<path d="M0 0 C0.99 0.33 1.98 0.66 3 1 C4.09658936 4.28976808 3.79953138 5.71303767 3 9 C2.34 9 1.68 9 1 9 C-1.04169485 6.09451118 -2 4.59857954 -2 1 C-1.34 0.67 -0.68 0.34 0 0 Z " fill="#24315C" transform="translate(110,100)"/>
<path d="M0 0 C1.03125 0.00322266 2.0625 0.00644531 3.125 0.00976562 C4.74535156 0.02233398 4.74535156 0.02233398 6.3984375 0.03515625 C8.03039062 0.04192383 8.03039062 0.04192383 9.6953125 0.04882812 C12.38807539 0.06063849 15.08072938 0.07710847 17.7734375 0.09765625 C17.7734375 0.42765625 17.7734375 0.75765625 17.7734375 1.09765625 C10.5134375 1.09765625 3.2534375 1.09765625 -4.2265625 1.09765625 C-4.2265625 1.75765625 -4.2265625 2.41765625 -4.2265625 3.09765625 C-5.5465625 3.42765625 -6.8665625 3.75765625 -8.2265625 4.09765625 C-7.8965625 3.10765625 -7.5665625 2.11765625 -7.2265625 1.09765625 C-4.66933021 -0.1809599 -2.85919148 -0.01570984 0 0 Z " fill="#2E3E69" transform="translate(318.2265625,37.90234375)"/>
<path d="M0 0 C0.99 0.33 1.98 0.66 3 1 C2.09373216 2.2989839 1.17450463 3.58893167 0.25 4.875 C-0.51570312 5.95394531 -0.51570312 5.95394531 -1.296875 7.0546875 C-3.07503547 9.08570565 -4.52701607 9.97855012 -7 11 C-6.2575 10.1028125 -6.2575 10.1028125 -5.5 9.1875 C-3.71723582 7.02970006 -3.71723582 7.02970006 -4 4 C-2 1.8125 -2 1.8125 0 0 Z " fill="#87BE46" transform="translate(233,266)"/>
<path d="M0 0 C0.33 0.66 0.66 1.32 1 2 C-0.38542316 5.62848922 -1.84351662 8.76527494 -4 12 C-4.99 12 -5.98 12 -7 12 C-5.44298069 7.32894208 -2.91552627 3.91294315 0 0 Z " fill="#384772" transform="translate(64,112)"/>
<path d="M0 0 C0.66 0.99 1.32 1.98 2 3 C1.01 3.495 1.01 3.495 0 4 C-0.33 10.6 -0.66 17.2 -1 24 C-1.33 24 -1.66 24 -2 24 C-2.05787784 20.37506666 -2.0935542 16.75025143 -2.125 13.125 C-2.14175781 12.09246094 -2.15851563 11.05992187 -2.17578125 9.99609375 C-2.18222656 9.00996094 -2.18867188 8.02382813 -2.1953125 7.0078125 C-2.20578613 6.09660645 -2.21625977 5.18540039 -2.22705078 4.24658203 C-2 2 -2 2 0 0 Z " fill="#38476F" transform="translate(250,282)"/>
<path d="M0 0 C3.3 0.99 6.6 1.98 10 3 C9.67 3.66 9.34 4.32 9 5 C7.68 5 6.36 5 5 5 C4.67 5.99 4.34 6.98 4 8 C0 2.25 0 2.25 0 0 Z " fill="#3E4C71" transform="translate(236,129)"/>
<path d="M0 0 C0.75 1.75 0.75 1.75 1 4 C-1.30178819 6.81329667 -4.0515284 8.89394885 -7 11 C-7.66 10.67 -8.32 10.34 -9 10 C-8.27683594 9.29423828 -8.27683594 9.29423828 -7.5390625 8.57421875 C-6.90742188 7.95160156 -6.27578125 7.32898438 -5.625 6.6875 C-4.68527344 5.76517578 -4.68527344 5.76517578 -3.7265625 4.82421875 C-1.81913393 2.91187472 -1.81913393 2.91187472 0 0 Z " fill="#435379" transform="translate(260,271)"/>
<path d="M0 0 C0.66 0.33 1.32 0.66 2 1 C-0.2008849 3.47859908 -2.06372969 4.61210366 -5.1875 5.6875 C-5.90292969 5.93886719 -6.61835937 6.19023438 -7.35546875 6.44921875 C-7.89816406 6.63097656 -8.44085938 6.81273438 -9 7 C-9.66 6.34 -10.32 5.68 -11 5 C-9.21289414 4.13633178 -7.4201535 3.28431406 -5.625 2.4375 C-4.62726563 1.96183594 -3.62953125 1.48617187 -2.6015625 0.99609375 C-1.74304688 0.66738281 -0.88453125 0.33867188 0 0 Z " fill="#3C4B75" transform="translate(111,76)"/>
<path d="M0 0 C0.33 0.99 0.66 1.98 1 3 C-2.3 6.3 -5.6 9.6 -9 13 C-9.66 12.67 -10.32 12.34 -11 12 C-10.54109375 11.55269531 -10.0821875 11.10539062 -9.609375 10.64453125 C-6.16447701 7.25029352 -2.92744915 3.86423288 0 0 Z " fill="#92C558" transform="translate(326,105)"/>
<path d="M0 0 C-0.598125 0.268125 -1.19625 0.53625 -1.8125 0.8125 C-4.1342786 2.0728941 -5.4494309 2.85873791 -7 5 C-7.73041853 8.61023099 -7.73041853 8.61023099 -8 12 C-8.66 11.34 -9.32 10.68 -10 10 C-9.7767253 3.85994587 -9.7767253 3.85994587 -7.25 1.0625 C-4.64597372 -0.16717908 -2.84687774 -0.23723981 0 0 Z " fill="#BBC1CE" transform="translate(357,29)"/>
<path d="M0 0 C0.33 0 0.66 0 1 0 C1.61528766 5.07612318 -0.38341651 7.82982006 -3 12 C-3.66 12 -4.32 12 -5 12 C-4.42365861 7.24518354 -2.44931479 4.02951788 0 0 Z " fill="#21305A" transform="translate(68,125)"/>
<path d="M0 0 C-1.12451727 2.9719385 -2.22293791 5.33440687 -4 8 C-4.99 8 -5.98 8 -7 8 C-6.44414399 4.1090079 -4.34122117 0 0 0 Z " fill="#8DC252" transform="translate(298,117)"/>
<path d="M0 0 C0 0.99 0 1.98 0 3 C-2.75 5.25 -2.75 5.25 -6 7 C-8.203125 6.609375 -8.203125 6.609375 -10 6 C-8.71283353 4.99421411 -7.42011342 3.99553202 -6.125 3 C-5.40570313 2.443125 -4.68640625 1.88625 -3.9453125 1.3125 C-2 0 -2 0 0 0 Z " fill="#32436E" transform="translate(213,256)"/>
<path d="M0 0 C-0.33 0.66 -0.66 1.32 -1 2 C-1.66 1.67 -2.32 1.34 -3 1 C-3.66 2.65 -4.32 4.3 -5 6 C-5.99 5.34 -6.98 4.68 -8 4 C-7 1 -7 1 -5.125 -0.25 C-3 -1 -3 -1 0 0 Z " fill="#48557A" transform="translate(196,247)"/>
<path d="M0 0 C1.875 0.3125 1.875 0.3125 4 1 C6 4 6 4 6 7 C4.02 7.66 2.04 8.32 0 9 C0.33 8.401875 0.66 7.80375 1 7.1875 C2.20787988 4.94613529 2.20787988 4.94613529 2 2 C1.34 1.34 0.68 0.68 0 0 Z " fill="#35446B" transform="translate(227,131)"/>
<path d="M0 0 C4.571279 0.54855348 8.67435795 1.41744803 13 3 C13 3.33 13 3.66 13 4 C11.741875 4.020625 10.48375 4.04125 9.1875 4.0625 C8.47980469 4.07410156 7.77210938 4.08570312 7.04296875 4.09765625 C5 4 5 4 2 3 C2 2.34 2 1.68 2 1 C1.34 0.67 0.68 0.34 0 0 Z " fill="#35436A" transform="translate(170,81)"/>
<path d="M0 0 C-1.6209213 1.17232685 -3.24686833 2.3377077 -4.875 3.5 C-5.77992188 4.1496875 -6.68484375 4.799375 -7.6171875 5.46875 C-10 7 -10 7 -12 7 C-12 6.34 -12 5.68 -12 5 C-11.34 5 -10.68 5 -10 5 C-10 4.34 -10 3.68 -10 3 C-3.375 -1.125 -3.375 -1.125 0 0 Z " fill="#2D366B" transform="translate(221,267)"/>
<path d="M0 0 C0 0.66 0 1.32 0 2 C-1.24176695 2.70226141 -2.49385599 3.38629109 -3.75 4.0625 C-4.79414063 4.63677734 -4.79414063 4.63677734 -5.859375 5.22265625 C-8.36140628 6.1312406 -9.5332355 5.88336837 -12 5 C-10.37750059 4.16180842 -8.75191503 3.3295884 -7.125 2.5 C-6.22007812 2.0359375 -5.31515625 1.571875 -4.3828125 1.09375 C-2 0 -2 0 0 0 Z " fill="#92C956" transform="translate(210,284)"/>
<path d="M0 0 C3.465 1.485 3.465 1.485 7 3 C7 3.99 7 4.98 7 6 C2.25 5.125 2.25 5.125 0 4 C0 2.68 0 1.36 0 0 Z " fill="#2D3A64" transform="translate(224,221)"/>
<path d="M0 0 C0.33 1.32 0.66 2.64 1 4 C1.66 4 2.32 4 3 4 C2.67 4.99 2.34 5.98 2 7 C-0.5625 8.1875 -0.5625 8.1875 -3 9 C-2.01 6.03 -1.02 3.06 0 0 Z " fill="#43517D" transform="translate(51,134)"/>
<path d="M0 0 C0 3.99904969 -1.72586967 5.80200422 -4 9 C-4.99 8.34 -5.98 7.68 -7 7 C-4.69 4.69 -2.38 2.38 0 0 Z " fill="#334372" transform="translate(74,101)"/>
<path d="M0 0 C0.66 0.33 1.32 0.66 2 1 C0.02 3.97 0.02 3.97 -2 7 C-3.32 6.67 -4.64 6.34 -6 6 C-4.02 4.02 -2.04 2.04 0 0 Z " fill="#324275" transform="translate(81,94)"/>
<path d="M0 0 C0.99 0.33 1.98 0.66 3 1 C2.01 1 1.02 1 0 1 C0 0.67 0 0.34 0 0 Z M1 2 C1 2.99 1 3.98 1 5 C-0.65 5.33 -2.3 5.66 -4 6 C-4 5.01 -4 4.02 -4 3 C-2 2 -2 2 1 2 Z " fill="#1E2F5E" transform="translate(226,136)"/>
<path d="M0 0 C0.66 0 1.32 0 2 0 C1.64950425 3.24208567 1.43778819 4.61527704 -1.0625 6.8125 C-1.701875 7.204375 -2.34125 7.59625 -3 8 C-1.125 2.25 -1.125 2.25 0 0 Z " fill="#293761" transform="translate(263,267)"/>
<path d="M0 0 C0.66 0.33 1.32 0.66 2 1 C0.875 2.9375 0.875 2.9375 -1 5 C-4.1875 5.75 -4.1875 5.75 -7 6 C-4.74259377 3.66475218 -2.7194239 1.81294927 0 0 Z " fill="#30426D" transform="translate(98,82)"/>
<path d="M0 0 C0.556875 0.226875 1.11375 0.45375 1.6875 0.6875 C-0.2925 2.0075 -2.2725 3.3275 -4.3125 4.6875 C-5.3025 4.0275 -6.2925 3.3675 -7.3125 2.6875 C-2.88173077 -0.38942308 -2.88173077 -0.38942308 0 0 Z " fill="#83BF44" transform="translate(217.3125,280.3125)"/>
<path d="M0 0 C1.32 0.66 2.64 1.32 4 2 C3.67 2.99 3.34 3.98 3 5 C1.35 4.67 -0.3 4.34 -2 4 C-1.34 2.68 -0.68 1.36 0 0 Z " fill="#2D3E69" transform="translate(109,255)"/>
<path d="M0 0 C0.66 0 1.32 0 2 0 C2.24954005 1.43410368 2.47392642 2.87260072 2.6875 4.3125 C2.81511719 5.11300781 2.94273437 5.91351563 3.07421875 6.73828125 C3 9 3 9 1.51953125 10.79296875 C1.01808594 11.19128906 0.51664063 11.58960938 0 12 C-0.66 11.67 -1.32 11.34 -2 11 C-1.34 10.01 -0.68 9.02 0 8 C0.24055468 5.94290404 0.24055468 5.94290404 0.125 3.8125 C0.08375 2.554375 0.0425 1.29625 0 0 Z " fill="#D3D8DF" transform="translate(160,175)"/>
<path d="M0 0 C0 0.33 0 0.66 0 1 C-1.65 1 -3.3 1 -5 1 C-5 1.66 -5 2.32 -5 3 C-7.31 2.67 -9.62 2.34 -12 2 C-8.09971775 -0.60018816 -4.52565431 -0.15085514 0 0 Z " fill="#47557A" transform="translate(142,69)"/>
<path d="M0 0 C0.99 0 1.98 0 3 0 C2.42415568 2.38564077 1.77772405 4.66682784 1 7 C0.01 6.67 -0.98 6.34 -2 6 C-1.34 6 -0.68 6 0 6 C-0.33 5.01 -0.66 4.02 -1 3 C-0.67 2.01 -0.34 1.02 0 0 Z " fill="#46567C" transform="translate(83,136)"/>
<path d="M0 0 C0.99 0.33 1.98 0.66 3 1 C2.67 2.98 2.34 4.96 2 7 C2.66 7.33 3.32 7.66 4 8 C3.01 8 2.02 8 1 8 C0.34 5.69 -0.32 3.38 -1 1 C-0.67 0.67 -0.34 0.34 0 0 Z " fill="#485479" transform="translate(220,135)"/>
<path d="M0 0 C1.33332095 2.6666419 0.67102033 4.16680303 0 7 C-0.99 7 -1.98 7 -3 7 C-1.125 1.125 -1.125 1.125 0 0 Z " fill="#505E86" transform="translate(55,126)"/>
<path d="M0 0 C-1.39332574 3.36720387 -2.9789286 4.9859524 -6 7 C-5.37162381 3.35541809 -4.14650034 0 0 0 Z " fill="#39446F" transform="translate(87,106)"/>
</svg>
